<?xml version="1.0" encoding="utf-8"?>
<!-- created with bpmn-js / http://bpmn.io -->
<!DOCTYPE svg PUBLIC "-//W3C//DTD SVG 1.1//EN" "http://www.w3.org/Graphics/SVG/1.1/DTD/svg11.dtd">
<svg xmlns="http://www.w3.org/2000/svg" xmlns:xlink="http://www.w3.org/1999/xlink" width="253" height="263" viewBox="518 166 253 263" version="1.1"><defs><marker id="Arrow-At-End-white-black-bryft04bulh85mcu5bylz2tlt" viewBox="0 0 20 20" refX="11" refY="10" markerWidth="10" markerHeight="10" orient="auto"><path d="M 1 5 L 11 10 L 1 15 Z" style="fill: black; stroke-width: 1px; stroke-linecap: round; stroke-dasharray: 10000, 1; stroke: black;"/></marker></defs><g class="djs-group"><g class="djs-element djs-shape" data-element-id="cb943d79-704a-49c5-ac0a-74a2a4ca3f2a" transform="matrix(1 0 0 1 524 202)" style="display: block;"><g class="djs-visual"><rect height="196" rx="0" ry="0" width="241" x="0" y="0" style="stroke: rgb(0, 0, 0); stroke-width: 2px; fill: none; stroke-dasharray: 10, 12;"/></g><rect class="djs-hit djs-hit-all" x="0" y="0" width="241" height="196" style="fill: none; stroke-opacity: 0; stroke: white; stroke-width: 15px;"/><rect x="-6" y="-6" width="253" height="208" class="djs-outline" style="fill: none;"/></g><g class="djs-children"><g class="djs-group"><g class="djs-element djs-shape" data-element-id="dceec16f-a878-4b89-8225-f7b39b57f6e4" transform="matrix(1 0 0 1 619 172)" style="display: block;"><g class="djs-visual"><circle cx="25" cy="25" r="25" style="stroke: rgb(0, 0, 0); stroke-width: 2px; fill: rgb(237, 32, 40);"/></g><rect class="djs-hit djs-hit-all" x="0" y="0" width="50" height="50" style="fill: none; stroke-opacity: 0; stroke: white; stroke-width: 15px;"/><rect x="-6" y="-6" width="62" height="62" class="djs-outline" style="fill: none;"/></g></g><g class="djs-group"><g class="djs-element djs-connection" data-element-id="85ed22e2-79a3-40e8-a7fd-7d04d72c52ad" style="display: block;"><g class="djs-visual"><path d="m  644,222L644,249 " style="fill: none; stroke-width: 2px; stroke: black; stroke-linejoin: round; marker-end: url('#Arrow-At-End-white-black-bryft04bulh85mcu5bylz2tlt');"/></g><polyline points="644,222 644,249 " class="djs-hit djs-hit-stroke" style="fill: none; stroke-opacity: 0; stroke: white; stroke-width: 15px;"/><rect x="638" y="216" width="12" height="39" class="djs-outline" style="fill: none;"/></g></g><g class="djs-group"><g class="djs-element djs-shape" data-element-id="95d13935-6020-4c0b-afae-8d4d5f1256e4" transform="matrix(1 0 0 1 542 372)" style="display: block;"><g class="djs-visual"><circle cx="25" cy="25" r="25" style="stroke: rgb(0, 0, 0); stroke-width: 2px; fill: rgb(237, 32, 40);"/></g><rect class="djs-hit djs-hit-all" x="0" y="0" width="50" height="50" style="fill: none; stroke-opacity: 0; stroke: white; stroke-width: 15px;"/><rect x="-6" y="-6" width="62" height="62" class="djs-outline" style="fill: none;"/></g></g><g class="djs-group"><g class="djs-element djs-connection" data-element-id="b846fdf4-202f-4f4a-bbe6-dad10b98c18a" style="display: block;"><g class="djs-visual"><path d="m  644,329L644,352 L567,352 L567,372 " style="fill: none; stroke-width: 2px; stroke: black; stroke-linejoin: round; marker-end: url('#Arrow-At-End-white-black-bryft04bulh85mcu5bylz2tlt');"/></g><polyline points="644,329 644,352 567,352 567,372 " class="djs-hit djs-hit-stroke" style="fill: none; stroke-opacity: 0; stroke: white; stroke-width: 15px;"/><rect x="561" y="323" width="89" height="55" class="djs-outline" style="fill: none;"/></g></g><g class="djs-group"><g class="djs-element djs-connection" data-element-id="144da1a4-fb09-4fef-be36-ccd70772d3b7" style="display: block;"><g class="djs-visual"><path d="m  644,329L644,352 L714,352 L714,373 " style="fill: none; stroke-width: 2px; stroke: black; stroke-linejoin: round; marker-end: url('#Arrow-At-End-white-black-bryft04bulh85mcu5bylz2tlt');"/></g><polyline points="644,329 644,352 714,352 714,373 " class="djs-hit djs-hit-stroke" style="fill: none; stroke-opacity: 0; stroke: white; stroke-width: 15px;"/><rect x="638" y="323" width="82" height="56" class="djs-outline" style="fill: none;"/></g></g><g class="djs-group"><g class="djs-element djs-shape" data-element-id="bf970fb9-8700-468e-969d-6c6ab8d3c11a" transform="matrix(1 0 0 1 689 373)" style="display: block;"><g class="djs-visual"><circle cx="25" cy="25" r="25" style="stroke: rgb(0, 0, 0); stroke-width: 2px; fill: rgb(237, 32, 40);"/></g><rect class="djs-hit djs-hit-all" x="0" y="0" width="50" height="50" style="fill: none; stroke-opacity: 0; stroke: white; stroke-width: 15px;"/><rect x="-6" y="-6" width="62" height="62" class="djs-outline" style="fill: none;"/></g></g><g class="djs-group"><g class="djs-element djs-shape" data-element-id="27727d8f-1e5f-4c64-98a5-1a65b7be9f20" transform="matrix(1 0 0 1 569 249)" style="display: block;"><g class="djs-visual"><rect height="80" rx="0" ry="0" width="150" x="0" y="0" style="stroke: rgb(0, 0, 0); stroke-width: 2px; fill: rgb(19, 174, 77);"/></g><rect class="djs-hit djs-hit-all" x="0" y="0" width="150" height="80" style="fill: none; stroke-opacity: 0; stroke: white; stroke-width: 15px;"/><rect x="-6" y="-6" width="162" height="92" class="djs-outline" style="fill: none;"/></g></g></g></g></svg>